# xmcd CD database file
#
# Track frame offsets:
#	150
#	11860
#	24371
#	38105
#	50821
#	60835
#	71855
#	85205
#	97535
#	110116
#	119332
#	134685
#	147910
#	162622
#
# Disc length: 2339 seconds
#
# Revision: 0
# Processed by: cddbd v1.5.2PL0 Copyright (c) Steve Scherf et al.
# Submitted via: CDex 1.70beta2
#
DISCID=c609210e
DTITLE=B.B. King - Anthology [CD2]
DYEAR=2007
DGENRE=Blues
TTITLE0=Hard Working Woman
TTITLE1=I Gotta Find My Baby
TTITLE2=I Want To Get Married
TTITLE3=I Wonder
TTITLE4=Jump With You Baby
TTITLE5=Let's Do The Boogie
TTITLE6=Lonely And Blue
TTITLE7=Miss Martha King
TTITLE8=Mistreated Woman
TTITLE9=My Baby's Gone
TTITLE10=My Own Fault
TTITLE11=On My Word Of Honor
TTITLE12=Past Day
TTITLE13=Please Love Me
EXTD=YEAR: 2007
EXTT0=
EXTT1=
EXTT2=
EXTT3=
EXTT4=
EXTT5=
EXTT6=
EXTT7=
EXTT8=
EXTT9=
EXTT10=
EXTT11=
EXTT12=
EXTT13=
PLAYORDER=
